<?xml version="1.0" encoding="utf-8"?>
<!-- Generator: Adobe Illustrator 19.2.1, SVG Export Plug-In . SVG Version: 6.00 Build 0)  -->
<svg version="1.1" id="Слой_1" xmlns="http://www.w3.org/2000/svg" width="174.5 px" height="30" xmlns:xlink="http://www.w3.org/1999/xlink" x="0px" y="0px"
	 viewBox="0 0 174.5 30" style="enable-background:new 0 0 174.5 30;" xml:space="preserve">
<style type="text/css">
	.st0{fill:#000;}
</style>
<path class="st0" d="M2,12.1c3-3,6.1-6.1,9.3-9.3c1.9,1.9,3.8,3.9,5.6,5.7c2.1-2,3.9-3.9,5.7-5.7c3.3,3.3,6.4,6.4,9.4,9.4
	c-5,5-9.9,9.9-14.9,14.9C12.1,22.2,7.1,17.2,2,12.1z M17.1,23.5c1.8-1.8,3.7-3.7,5.3-5.3c-1.8-1.8-3.7-3.7-5.5-5.4
	c-1.7,1.7-3.5,3.5-5.3,5.3C13.4,19.8,15.3,21.7,17.1,23.5z M11.3,6.7c-1.9,1.9-3.7,3.7-5.5,5.5c1.2,1.2,2.5,2.6,3.7,3.7
	c1.8-1.8,3.6-3.7,5.5-5.5C13.7,9.2,12.5,8,11.3,6.7z M24.5,16c1.3-1.3,2.6-2.6,3.7-3.7c-1.7-1.7-3.6-3.6-5.3-5.3
	c-1.1,1.2-2.4,2.5-3.6,3.7C20.9,12.4,22.7,14.2,24.5,16z"/>
<g>
	<path class="st0" d="M52,9.4v13.3h-3.7v-4.5c-1,0.3-2,0.5-2.8,0.5c-1.9,0-3.3-0.4-4.3-1.3c-1-0.9-1.5-2.2-1.5-3.9V9.4h3.7V13
		c0,1.7,0.8,2.6,2.5,2.6c0.9,0,1.7-0.2,2.4-0.5V9.4H52z"/>
	<path class="st0" d="M53.6,9.4h3.7v7.8l5.5-7.8h3.5v13.3h-3.7v-7.8l-5.5,7.8h-3.6V9.4z"/>
	<path class="st0" d="M80.5,9.4v13.3h-3.8v-5.2h-5.1v5.2h-3.8V9.4h3.8v5h5.1v-5H80.5z"/>
	<path class="st0" d="M82,9.4h3.7v7.8l5.5-7.8h3.5v13.3H91v-7.8l-5.5,7.8H82V9.4z"/>
	<path class="st0" d="M108.2,22.7l0-7l-3.4,5.7h-1.7l-3.4-5.6v6.9h-3.5V9.4h3.1L104,17l4.6-7.7h3.1l0,13.3H108.2z"/>
</g>
<g>
	<path class="st0" d="M120.9,22c-1.1-0.6-2-1.4-2.6-2.5s-1-2.2-1-3.6s0.3-2.5,1-3.6c0.6-1.1,1.5-1.9,2.6-2.5
		c1.1-0.6,2.4-0.9,3.8-0.9s2.7,0.3,3.8,0.9c1.1,0.6,2,1.4,2.6,2.5c0.6,1.1,1,2.2,1,3.6s-0.3,2.5-1,3.6s-1.5,1.9-2.6,2.5
		c-1.1,0.6-2.4,0.9-3.8,0.9S122,22.6,120.9,22z M126.5,19.3c0.5-0.3,1-0.8,1.3-1.3c0.3-0.6,0.5-1.2,0.5-2c0-0.7-0.2-1.4-0.5-2
		c-0.3-0.6-0.7-1-1.3-1.3c-0.5-0.3-1.2-0.5-1.8-0.5c-0.7,0-1.3,0.2-1.8,0.5c-0.5,0.3-1,0.8-1.3,1.3c-0.3,0.6-0.5,1.2-0.5,2
		c0,0.7,0.2,1.4,0.5,2s0.7,1,1.3,1.3s1.2,0.5,1.8,0.5C125.4,19.8,126,19.7,126.5,19.3z"/>
	<path class="st0" d="M138.2,17.6h-1.7v5.1h-3.7V9.4h3.7v5.2h1.8l3.2-5.2h4l-4.2,6.4l4.2,6.9h-4.2L138.2,17.6z"/>
	<path class="st0" d="M158,9.4v13.3h-3.8v-5.2h-5.1v5.2h-3.8V9.4h3.8v5h5.1v-5H158z"/>
	<path class="st0" d="M168.7,20.1H163l-1,2.6h-3.8L164,9.4h3.7l5.9,13.3h-3.9L168.7,20.1z M167.6,17.3l-1.7-4.3l-1.7,4.3H167.6z"/>
</g>
</svg>
